<?xml version="1.0" encoding="utf-8"?>
<!-- Generator: Adobe Illustrator 25.3.0, SVG Export Plug-In . SVG Version: 6.00 Build 0)  -->
<svg version="1.1" id="Livello_1" xmlns="http://www.w3.org/2000/svg" xmlns:xlink="http://www.w3.org/1999/xlink" x="0px" y="0px"
	 viewBox="0 0 297.2 297.2" style="enable-background:new 0 0 297.2 297.2;" xml:space="preserve">
<style type="text/css">
	.st0{fill:#0048CC;}
	.st1{fill:#1D1D1B;}
	.st2{fill:#FFFFFF;}
</style>
<g id="Livello_2_1_">
	<g id="Logo">
		<path class="st0" d="M148.6,0C66.5,0,0,66.5,0,148.6s66.5,148.6,148.6,148.6s148.6-66.5,148.6-148.6l0,0
			C297.2,66.5,230.7,0,148.6,0z M148.6,280.8c-73,0-132.2-59.2-132.2-132.2S75.6,16.4,148.6,16.4s132.2,59.2,132.2,132.2
			c0,0,0,0,0,0C280.8,221.6,221.6,280.8,148.6,280.8z"/>
		<path class="st1" d="M280.9,148.6c0,73-59.2,132.2-132.2,132.2S16.4,221.7,16.4,148.6c0-73,59.2-132.2,132.2-132.2c0,0,0,0,0,0
			C221.7,16.4,280.9,75.6,280.9,148.6C280.9,148.6,280.9,148.6,280.9,148.6z"/>
		<path class="st2" d="M211.2,208.7l-19.8-46L180,136c-7-17.3-26.6-25.7-43.9-18.7c-8.5,3.4-15.3,10.2-18.7,18.7l-11.5,26.8
			c-7.8-23.6,5-49.2,28.6-57c16.2-5.4,34-1.1,46.1,10.9l10.6-10.6c-23.5-23.5-61.6-23.5-85,0c-20,20-23.3,51.1-8.1,74.9l-11.9,27.7
			l25.3,0l0-4.8l-2.8-2.8l2.4-5.6c21.9,17.6,53.2,17.7,75.2,0.1l2.4,5.6l-2.8,2.7l0,4.8L211.2,208.7z M148.6,193.7
			c-11.7,0-23-4.5-31.4-12.7l16.6-38.7c3.5-8.2,12.9-12,21.1-8.5c3.8,1.6,6.8,4.7,8.5,8.5l16.6,38.7
			C171.6,189.2,160.3,193.7,148.6,193.7z"/>
	</g>
</g>
</svg>
