<?xml version="1.0" encoding="utf-8"?>
<!-- Generator: Adobe Illustrator 25.3.0, SVG Export Plug-In . SVG Version: 6.00 Build 0)  -->
<svg version="1.1" id="Livello_1" xmlns="http://www.w3.org/2000/svg" xmlns:xlink="http://www.w3.org/1999/xlink" x="0px" y="0px"
	 viewBox="0 0 448 512" style="enable-background:new 0 0 448 512;" xml:space="preserve">
<style type="text/css">
	.st0{fill-rule:evenodd;clip-rule:evenodd;fill:#FFFFFF;}
</style>
<g>
	<polygon class="st0" points="117.5,134.9 301.6,375.5 329.8,375.5 147.7,134.9 	"/>
	<path class="st0" d="M416,32H31.9C14.3,32,0,46.5,0,64.3v383.4C0,465.5,14.3,480,31.9,480H416c17.6,0,32-14.5,32-32.3V64.3
		C448,46.5,433.6,32,416,32z M287.5,406l-80.2-104.9L115.5,406H64.6l118.9-135.9L58,106h105l72.5,95.9l83.9-95.9h50.9L259.2,233.1
		L390,406H287.5z"/>
</g>
</svg>
