<?xml version="1.0" encoding="utf-8"?>
<!-- Generator: Adobe Illustrator 25.3.0, SVG Export Plug-In . SVG Version: 6.00 Build 0)  -->
<svg version="1.1" xmlns="http://www.w3.org/2000/svg" xmlns:xlink="http://www.w3.org/1999/xlink" x="0px" y="0px"
	 viewBox="0 0 448 512" style="enable-background:new 0 0 448 512;" xml:space="preserve">
<style type="text/css">
	.st0{fill:#FFFFFF;}
	.st1{display:none;}
	.st2{display:inline;fill:#FFFFFF;}
</style>
<g id="Livello_1">
	<path class="st0" d="M224,212.3c-24.2,0-43.7,19.6-43.7,43.8s19.6,43.7,43.8,43.7s43.7-19.6,43.7-43.7
		C267.7,231.8,248.2,212.3,224,212.3z M348.7,161.7c-5.5-13.9-16.5-24.9-30.4-30.4c-21-8.3-71-6.4-94.3-6.4s-73.2-1.9-94.3,6.4
		c-13.9,5.5-24.9,16.5-30.4,30.4c-8.3,21-6.4,71.1-6.4,94.3s-1.8,73.3,6.5,94.3c5.5,13.9,16.5,24.9,30.4,30.4
		c21,8.3,71,6.4,94.3,6.4s73.2,1.9,94.3-6.4c13.9-5.5,24.9-16.5,30.4-30.4c8.4-21,6.4-71.1,6.4-94.3S357.1,182.7,348.7,161.7
		L348.7,161.7z M224,338c-45.3,0-82-36.7-82-82s36.7-82,82-82s82,36.7,82,82c0.1,45.2-36.6,81.9-81.8,82
		C224.1,338,224.1,338,224,338z M309.4,189.7c-10.6,0-19.1-8.6-19.1-19.1s8.6-19.1,19.1-19.1c10.6,0,19.1,8.6,19.1,19.1l0,0
		c0,10.5-8.5,19.1-19,19.2C309.5,189.7,309.4,189.7,309.4,189.7L309.4,189.7z M400,32H48C21.5,32,0,53.5,0,80v352
		c0,26.5,21.5,48,48,48h352c26.5,0,48-21.5,48-48V80C448,53.5,426.5,32,400,32z M392.4,326c-1.4,27.1-7.5,51.2-27.5,71
		s-43.9,26.1-71,27.5c-28,1.6-111.9,1.6-139.9,0c-27.1-1.4-51.2-7.5-71-27.5S57,353.1,55.7,326c-1.6-28-1.6-111.9,0-139.9
		c1.4-27.1,7.5-51.2,27.3-71s44-26.1,71-27.3c28-1.6,111.9-1.6,139.9,0c27.1,1.4,51.2,7.6,71,27.3s26.1,43.9,27.5,71
		C394,214,394,298,392.4,326z"/>
</g>
<g id="Livello_2" class="st1">
	<rect x="290.3" y="151.5" class="st2" width="38.2" height="38.2"/>
	<rect x="267.8" y="236.9" class="st2" width="38.2" height="38.2"/>
	<rect x="355.4" y="236.9" class="st2" width="38.2" height="38.2"/>
</g>
</svg>
